<?xml version="1.0" encoding="UTF-8" standalone="no"?>
<!-- Generator: Adobe Illustrator 20.1.0, SVG Export Plug-In . SVG Version: 6.00 Build 0)  -->

<svg
   xmlns:dc="http://purl.org/dc/elements/1.1/"
   xmlns:cc="http://creativecommons.org/ns#"
   xmlns:rdf="http://www.w3.org/1999/02/22-rdf-syntax-ns#"
   xmlns:svg="http://www.w3.org/2000/svg"
   xmlns="http://www.w3.org/2000/svg"
   xmlns:xlink="http://www.w3.org/1999/xlink"
   xmlns:sodipodi="http://sodipodi.sourceforge.net/DTD/sodipodi-0.dtd"
   xmlns:inkscape="http://www.inkscape.org/namespaces/inkscape"
   version="1.1"
   id="Camada_1"
   x="0px"
   y="0px"
   viewBox="0 0 81.999999 81.999999"
   xml:space="preserve"
   inkscape:version="0.91 r13725"
   sodipodi:docname="GOOGLE PLUS.svg"
   width="82"
   height="82"><metadata
     id="metadata23"><rdf:RDF><cc:Work
         rdf:about=""><dc:format>image/svg+xml</dc:format><dc:type
           rdf:resource="http://purl.org/dc/dcmitype/StillImage" /><dc:title></dc:title></cc:Work></rdf:RDF></metadata><defs
     id="defs21" /><sodipodi:namedview
     pagecolor="#00ffff"
     bordercolor="#666666"
     borderopacity="1"
     objecttolerance="10"
     gridtolerance="10"
     guidetolerance="10"
     inkscape:pageopacity="0"
     inkscape:pageshadow="2"
     inkscape:window-width="1855"
     inkscape:window-height="1056"
     id="namedview19"
     showgrid="false"
     inkscape:zoom="7.29623"
     inkscape:cx="73.900002"
     inkscape:cy="49.450001"
     inkscape:window-x="65"
     inkscape:window-y="24"
     inkscape:window-maximized="1"
     inkscape:current-layer="Camada_1" /><style
     type="text/css"
     id="style3">
	.st0{clip-path:url(#SVGID_2_);fill:#FFFFFF;}
	.st1{fill:#FFFFFF;}
</style><g
     id="g5"
     transform="translate(-30.95,-10.44713)"><g
       id="g7"><defs
         id="defs9"><rect
           id="SVGID_1_"
           x="32"
           y="25.799999"
           width="80"
           height="51.5" /></defs><clipPath
         id="SVGID_2_"><use
           xlink:href="#SVGID_1_"
           style="overflow:visible"
           id="use13"
           x="0"
           y="0"
           width="100%"
           height="100%" /></clipPath><path
         class="st0"
         d="m 60.1,56.7 12.5,0 C 70.4,62.9 64.5,67.3 57.5,67.3 49.1,67.2 42.1,60.5 41.8,52.1 c -0.4,-9 6.9,-16.5 15.9,-16.5 4.1,0 7.8,1.6 10.7,4.1 0.7,0.6 1.7,0.6 2.3,0 l 4.6,-4.3 C 76,34.7 76,33.6 75.3,32.9 70.8,28.7 64.8,26 58.2,25.9 44,25.6 32.1,37.1 32,51.2 31.9,65.5 43.4,77 57.6,77 71.2,77 82.4,66.3 83.1,52.9 c 0,-0.2 0,-5.9 0,-5.9 l -23,0 c -0.9,0 -1.7,0.8 -1.7,1.7 l 0,6.3 c 0,0.9 0.7,1.7 1.7,1.7 l 0,0 z m 0,0"
         id="path15"
         clip-path="url(#SVGID_2_)"
         inkscape:connector-curvature="0"
         style="fill:#ffffff" /></g><path
       class="st1"
       d="m 104.3,47.6 0,-6.1 c 0,-0.8 -0.7,-1.5 -1.5,-1.5 l -5.2,0 c -0.8,0 -1.5,0.7 -1.5,1.5 l 0,6.1 -6.1,0 c -0.8,0 -1.5,0.7 -1.5,1.5 l 0,5.2 c 0,0.8 0.7,1.5 1.5,1.5 l 6.1,0 0,6.1 c 0,0.8 0.7,1.5 1.5,1.5 l 5.2,0 c 0.8,0 1.5,-0.7 1.5,-1.5 l 0,-6.1 6.1,0 c 0.8,0 1.5,-0.7 1.5,-1.5 l 0,-5.2 c 0,-0.8 -0.7,-1.5 -1.5,-1.5 l -6.1,0 z m 0,0"
       id="path17"
       inkscape:connector-curvature="0"
       style="fill:#ffffff" /></g></svg>