<?xml version="1.0" encoding="UTF-8" standalone="no"?>
<!-- Generator: Adobe Illustrator 20.1.0, SVG Export Plug-In . SVG Version: 6.00 Build 0)  -->

<svg
   xmlns:dc="http://purl.org/dc/elements/1.1/"
   xmlns:cc="http://creativecommons.org/ns#"
   xmlns:rdf="http://www.w3.org/1999/02/22-rdf-syntax-ns#"
   xmlns:svg="http://www.w3.org/2000/svg"
   xmlns="http://www.w3.org/2000/svg"
   xmlns:sodipodi="http://sodipodi.sourceforge.net/DTD/sodipodi-0.dtd"
   xmlns:inkscape="http://www.inkscape.org/namespaces/inkscape"
   version="1.1"
   id="Camada_1"
   x="0px"
   y="0px"
   viewBox="0 0 81.999999 81.999999"
   xml:space="preserve"
   inkscape:version="0.91 r13725"
   sodipodi:docname="TWITTER.svg"
   width="82"
   height="82"><metadata
     id="metadata11"><rdf:RDF><cc:Work
         rdf:about=""><dc:format>image/svg+xml</dc:format><dc:type
           rdf:resource="http://purl.org/dc/dcmitype/StillImage" /><dc:title></dc:title></cc:Work></rdf:RDF></metadata><defs
     id="defs9" /><sodipodi:namedview
     pagecolor="#00ffff"
     bordercolor="#666666"
     borderopacity="1"
     objecttolerance="10"
     gridtolerance="10"
     guidetolerance="10"
     inkscape:pageopacity="0"
     inkscape:pageshadow="2"
     inkscape:window-width="1855"
     inkscape:window-height="1056"
     id="namedview7"
     showgrid="false"
     inkscape:zoom="7.29623"
     inkscape:cx="73.900002"
     inkscape:cy="49.450001"
     inkscape:window-x="65"
     inkscape:window-y="24"
     inkscape:window-maximized="1"
     inkscape:current-layer="Camada_1" /><style
     type="text/css"
     id="style3">
	.st0{fill:#FFFFFF;}
</style><path
     class="st0"
     d="m 5.4471316,59.581597 c 3.1,-0.4 6.3000004,0 9.4000004,-0.5 1.6,-0.3 3,-0.8 4.4,-1.3 -3.5,-2.3 -6.7,-4.8 -9.6000004,-7.9 -1.1,-1.1 -0.3,-2.9 1.2000004,-3 1.3,0.1 2.5,0 3.7,-0.3 -3.1,-3.9 -5.4000004,-8.1 -7.3000004,-12.8 -0.5,-1.3 1,-2.5 2.2,-2.2 0.7000004,0.3 1.4000004,0.5 2.1000004,0.6 -2.2000004,-5.299999 -2.6000004,-10.499999 -1.4,-16.399999 0.3,-1.3 2,-1.7 2.9,-0.8 7,6.9 15.9,10.2 25.4,11.8 -0.8,-6.5 3.8,-13.4 9.8,-15.6 5,-1.9000002 11.8,-0.6 15.1,3.6 2.3,-1.4 5.4,-1.9 7.9,-2.3 1.3,-0.2 2.6,1.1 1.8,2.4 -0.9,1.5 -1.8,3.2 -2.7,4.7 1.9,-0.6 3.9,-0.9 5.9,-1.2 1.4,-0.2 2.3,2 1.2,2.9 -2.3,1.9 -4.6,4 -7.1,5.7 -0.1,16.499999 -4.9,30.299999 -19.6,39.699999 -12.3,7.8 -35.1,6.5 -45.7000004,-4.2 l 0,0 c -0.5,-0.1 -0.7,-0.5 -0.8,-0.9 -0.4,-0.6 -0.1,-1.4 0.4,-1.7 0.2,-0.1 0.5,-0.3 0.8,-0.3 l 0,0 z m 0,0"
     id="path5"
     inkscape:connector-curvature="0"
     style="fill:#ffffff" /></svg>